# xmcd
#
# Track frame offsets: 
#        150
#        4645
#        26775
#        53312
#        66672
#        87677
#        105197
#        129052
#        150222
#        174265
#        205190
#        227727
#        237015
#        267412
#        301495
#
# Disc length: 4362 seconds
#
# Revision: 3
# Processed by: cddbd v1.5.2PL0 Copyright (c) Steve Scherf et al.
# Submitted via: ExactAudioCopy v1.3
#
DISCID=b011080f
DTITLE=陳冠蒨 - 欲言又止
DYEAR=2002
DGENRE=Light
TTITLE0=Intro
TTITLE1=欲言又止
TTITLE2=Sunny Day
TTITLE3=留一點愛
TTITLE4=能不能
TTITLE5=如何解釋愛
TTITLE6=生動
TTITLE7=I Know
TTITLE8=別說
TTITLE9=月球
TTITLE10=瞬間
TTITLE11=I Wish (piano)
TTITLE12=夜幕
TTITLE13=兩三個合弦
TTITLE14=Waiting For The Light (Piano)
EXTD=YEAR: 2002
EXTT0=
EXTT1=
EXTT2=
EXTT3=
EXTT4=
EXTT5=
EXTT6=
EXTT7=
EXTT8=
EXTT9=
EXTT10=
EXTT11=
EXTT12=
EXTT13=
EXTT14=
PLAYORDER=
